<svg xmlns="http://www.w3.org/2000/svg" viewBox="0 0 24 24" fill="currentColor">
  <path d="M22.282 9.821a5.985 5.985 0 0 0-.516-4.91 6.046 6.046 0 0 0-6.51-2.9A6.065 6.065 0 0 0 4.981 4.18a5.985 5.985 0 0 0-3.998 2.9 6.046 6.046 0 0 0 .743 7.097 5.98 5.98 0 0 0 .511 4.911 6.051 6.051 0 0 0 6.515 2.9A5.985 5.985 0 0 0 13.26 24a6.056 6.056 0 0 0 5.772-4.206 5.99 5.99 0 0 0 3.997-2.9 6.056 6.056 0 0 0-.747-7.073zm-9.022 12.608a4.476 4.476 0 0 1-2.876-1.04l.141-.081 4.779-2.758a.776.776 0 0 0 .392-.681v-6.737l2.02 1.168a.07.07 0 0 1 .038.052v5.583a4.504 4.504 0 0 1-4.494 4.494zm-9.661-4.125a4.471 4.471 0 0 1-.535-3.014l.142.085 4.783 2.759a.775.775 0 0 0 .781 0l5.843-3.369v2.332a.08.08 0 0 1-.033.062L9.74 19.95a4.499 4.499 0 0 1-6.141-1.646zm-1.258-11.22A4.485 4.485 0 0 1 4.7 5.11v5.726a.757.757 0 0 0 .387.676l5.814 3.354-2.02 1.169a.076.076 0 0 1-.071 0l-4.83-2.787a4.504 4.504 0 0 1-.451-4.571zm16.596 3.856L13.14 8.364l2.016-1.165a.076.076 0 0 1 .071 0l4.83 2.791a4.494 4.494 0 0 1-.677 8.104v-5.677a.791.791 0 0 0-.407-.667zm2.01-3.023-.141-.086-4.774-2.782a.775.775 0 0 0-.785 0L9.409 9.23V6.897a.066.066 0 0 1 .028-.061l4.83-2.787a4.499 4.499 0 0 1 6.68 4.66zM8.306 12.863l-2.02-1.164a.08.08 0 0 1-.038-.057V6.075a4.499 4.499 0 0 1 7.376-3.454l-.141.08-4.779 2.759a.775.775 0 0 0-.392.68zm1.097-2.365 2.597-1.5 2.597 1.5v3l-2.597 1.5-2.597-1.5z"/>
</svg>
